ffmpeg started on 2025-06-28 at 18:07:36
Report written to "D:\Convert\FFMetrics\reports\psnr_report-6.txt"
Log level: 32
Command line:
ffmpeg -hide_banner -nostdin -i "G:\\\xc0\xed\xe8\xec\xe5\\\xce\xed\xe3\xee\xe8\xed\xe3\xe8\\!_37_\xc7\xe8\xec\xe0_2025\\JamClub\\100 \xe4\xe5\xe2\xf3\xf8\xe5\xea, \xea\xee\xf2\xee\xf0\xfb\xe5 \xee\xf7\xe5\xed\xfc-\xee\xf7\xe5\xed\xfc-\xee\xf7\xe5\xed\xfc-\xee\xf7\xe5\xed\xfc-\xee\xf7\xe5\xed\xfc \xf1\xe8\xeb\xfc\xed\xee \xf2\xe5\xe1\xff \xeb\xfe\xe1\xff\xf2\\\xd2\xc2-2\\JamClub_The_100_Girlfriends_Who_Really_Really_Really_Really_REALLY_2_08_HEVC.mkv" -i "G:\\\xc0\xed\xe8\xec\xe5\\\xce\xed\xe3\xee\xe8\xed\xe3\xe8\\!_37_\xc7\xe8\xec\xe0_2025\\JamClub\\100 \xe4\xe5\xe2\xf3\xf8\xe5\xea, \xea\xee\xf2\xee\xf0\xfb\xe5 \xee\xf7\xe5\xed\xfc-\xee\xf7\xe5\xed\xfc-\xee\xf7\xe5\xed\xfc-\xee\xf7\xe5\xed\xfc-\xee\xf7\xe5\xed\xfc \xf1\xe8\xeb\xfc\xed\xee \xf2\xe5\xe1\xff \xeb\xfe\xe1\xff\xf2\\\xd2\xc2-2\\JamClub_The_100_Girlfriends_Who_Really_Really_Really_Really_REALLY_2_08.mp4" -lavfi "[0:v]settb=AVTB,setpts=PTS-STARTPTS,format=pix_fmts=yuv420p10,fps=24000/1001,scale=1920:1080:flags=bicubic[main];[1:v]settb=AVTB,setpts=PTS-STARTPTS,format=pix_fmts=yuv420p,fps=24000/1001,scale=1920:1080:flags=bicubic[ref];[main][ref]psnr=eof_action=endall:stats_file='D\\:/Convert/FFMetrics/logs/psnr_logfile-6.txt'" -f null -
Input #0, matroska,webm, from 'G:\Аниме\Онгоинги\!_37_Зима_2025\JamClub\100 девушек, которые очень-очень-очень-очень-очень сильно тебя любят\ТВ-2\JamClub_The_100_Girlfriends_Who_Really_Really_Really_Really_REALLY_2_08_HEVC.mkv':
  Metadata:
    COMPATIBLE_BRANDS: isomiso2avc1mp41
    MAJOR_BRAND     : isom
    MINOR_VERSION   : 512
    ENCODER         : Lavf61.7.100
  Duration: 00:24:12.31, start: -0.001000, bitrate: 1729 kb/s
  Stream #0:0: Video: hevc (Main 10), yuv420p10le(tv, bt709, progressive), 1920x1080 [SAR 1:1 DAR 16:9], 23.98 fps, 23.98 tbr, 1k tbn (default)
      Metadata:
        HANDLER_NAME    : VideoHandler
        VENDOR_ID       : [0][0][0][0]
        ENCODER         : Lavc61.19.100 libx265
        BPS             : 1533007
        DURATION        : 00:24:12.242708333
        NUMBER_OF_FRAMES: 34819
        NUMBER_OF_BYTES : 278287322
        _STATISTICS_WRITING_APP: mkvpropedit v66.0.0 ('Josie') 64-bit
        _STATISTICS_WRITING_DATE_UTC: 2025-06-28 13:53:52
        _STATISTICS_TAGS: BPS DURATION NUMBER_OF_FRAMES NUMBER_OF_BYTES
  Stream #0:1(eng): Audio: aac (LC), 48000 Hz, stereo, fltp (default)
      Metadata:
        HANDLER_NAME    : SoundHandler
        VENDOR_ID       : [0][0][0][0]
        ENCODER         : Lavc61.19.100 aac
        BPS             : 192920
        DURATION        : 00:24:12.269000000
        NUMBER_OF_FRAMES: 68076
        NUMBER_OF_BYTES : 35021610
        _STATISTICS_WRITING_APP: mkvpropedit v66.0.0 ('Josie') 64-bit
        _STATISTICS_WRITING_DATE_UTC: 2025-06-28 13:53:52
        _STATISTICS_TAGS: BPS DURATION NUMBER_OF_FRAMES NUMBER_OF_BYTES
Input #1, mov,mp4,m4a,3gp,3g2,mj2, from 'G:\Аниме\Онгоинги\!_37_Зима_2025\JamClub\100 девушек, которые очень-очень-очень-очень-очень сильно тебя любят\ТВ-2\JamClub_The_100_Girlfriends_Who_Really_Really_Really_Really_REALLY_2_08.mp4':
  Metadata:
    major_brand     : isom
    minor_version   : 512
    compatible_brands: isomiso2avc1mp41
    encoder         : Lavf60.16.100
  Duration: 00:24:12.29, start: 0.000000, bitrate: 4559 kb/s
  Stream #1:0[0x1](und): Video: h264 (High) (avc1 / 0x31637661), yuv420p(progressive), 1920x1080 [SAR 1:1 DAR 16:9], 4361 kb/s, 23.98 fps, 23.98 tbr, 90k tbn (default)
      Metadata:
        handler_name    : VideoHandler
        vendor_id       : [0][0][0][0]
  Stream #1:1[0x2](eng): Audio: aac (LC) (mp4a / 0x6134706D), 48000 Hz, stereo, fltp, 191 kb/s (default)
      Metadata:
        handler_name    : SoundHandler
        vendor_id       : [0][0][0][0]
Stream mapping:
  Stream #0:0 (hevc) -> settb:default
  Stream #1:0 (h264) -> settb:default
  psnr:default -> Stream #0:0 (wrapped_avframe)
  Stream #0:1 -> #0:1 (aac (native) -> pcm_s16le (native))
Output #0, null, to 'pipe:':
  Metadata:
    COMPATIBLE_BRANDS: isomiso2avc1mp41
    MAJOR_BRAND     : isom
    MINOR_VERSION   : 512
    encoder         : Lavf61.7.100
  Stream #0:0: Video: wrapped_avframe, yuv420p10le(tv, bt709, progressive), 1920x1080 [SAR 1:1 DAR 16:9], q=2-31, 200 kb/s, 23.98 fps, 23.98 tbn
      Metadata:
        encoder         : Lavc61.19.100 wrapped_avframe
  Stream #0:1(eng): Audio: pcm_s16le, 48000 Hz, stereo, s16, 1536 kb/s (default)
      Metadata:
        HANDLER_NAME    : SoundHandler
        VENDOR_ID       : [0][0][0][0]
        _STATISTICS_TAGS: BPS DURATION NUMBER_OF_FRAMES NUMBER_OF_BYTES
        BPS             : 192920
        DURATION        : 00:24:12.269000000
        NUMBER_OF_FRAMES: 68076
        NUMBER_OF_BYTES : 35021610
        _STATISTICS_WRITING_APP: mkvpropedit v66.0.0 ('Josie') 64-bit
        _STATISTICS_WRITING_DATE_UTC: 2025-06-28 13:53:52
        encoder         : Lavc61.19.100 pcm_s16le
frame=  116 fps=0.0 q=-0.0 size=N/A time=00:00:04.83 bitrate=N/A speed=9.31x    frame=  279 fps=271 q=-0.0 size=N/A time=00:00:11.63 bitrate=N/A speed=11.3x    frame=  484 fps=311 q=-0.0 size=N/A time=00:00:20.18 bitrate=N/A speed=  13x    frame=  656 fps=318 q=-0.0 size=N/A time=00:00:27.36 bitrate=N/A speed=13.2x    frame=  907 fps=352 q=-0.0 size=N/A time=00:00:37.82 bitrate=N/A speed=14.7x    frame= 1184 fps=382 q=-0.0 size=N/A time=00:00:49.38 bitrate=N/A speed=15.9x    frame= 1458 fps=403 q=-0.0 size=N/A time=00:01:00.81 bitrate=N/A speed=16.8x    frame= 1744 fps=423 q=-0.0 size=N/A time=00:01:12.73 bitrate=N/A speed=17.6x    frame= 2016 fps=433 q=-0.0 size=N/A time=00:01:24.08 bitrate=N/A speed=18.1x    frame= 2283 fps=442 q=-0.0 size=N/A time=00:01:35.22 bitrate=N/A speed=18.5x    frame= 2494 fps=440 q=-0.0 size=N/A time=00:01:44.02 bitrate=N/A speed=18.3x    frame= 2707 fps=437 q=-0.0 size=N/A time=00:01:52.90 bitrate=N/A speed=18.2x    frame= 2925 fps=436 q=-0.0 size=N/A time=00:02:01.99 bitrate=N/A speed=18.2x    frame= 3152 fps=437 q=-0.0 size=N/A time=00:02:11.46 bitrate=N/A speed=18.2x    frame= 3360 fps=434 q=-0.0 size=N/A time=00:02:20.14 bitrate=N/A speed=18.1x    frame= 3594 fps=435 q=-0.0 size=N/A time=00:02:29.89 bitrate=N/A speed=18.2x    frame= 3745 fps=427 q=-0.0 size=N/A time=00:02:36.19 bitrate=N/A speed=17.8x    frame= 3924 fps=422 q=-0.0 size=N/A time=00:02:43.66 bitrate=N/A speed=17.6x    frame= 4097 fps=418 q=-0.0 size=N/A time=00:02:50.87 bitrate=N/A speed=17.4x    frame= 4292 fps=416 q=-0.0 size=N/A time=00:02:59.01 bitrate=N/A speed=17.4x    frame= 4507 fps=416 q=-0.0 size=N/A time=00:03:07.97 bitrate=N/A speed=17.3x    frame= 4732 fps=417 q=-0.0 size=N/A time=00:03:17.36 bitrate=N/A speed=17.4x    frame= 4989 fps=421 q=-0.0 size=N/A time=00:03:28.08 bitrate=N/A speed=17.5x    frame= 5198 fps=420 q=-0.0 size=N/A time=00:03:36.79 bitrate=N/A speed=17.5x    frame= 5368 fps=416 q=-0.0 size=N/A time=00:03:43.89 bitrate=N/A speed=17.4x    frame= 5615 fps=419 q=-0.0 size=N/A time=00:03:54.19 bitrate=N/A speed=17.5x    frame= 5867 fps=421 q=-0.0 size=N/A time=00:04:04.70 bitrate=N/A speed=17.6x    frame= 6097 fps=422 q=-0.0 size=N/A time=00:04:14.29 bitrate=N/A speed=17.6x    frame= 6339 fps=424 q=-0.0 size=N/A time=00:04:24.38 bitrate=N/A speed=17.7x    frame= 6582 fps=425 q=-0.0 size=N/A time=00:04:34.52 bitrate=N/A speed=17.7x    frame= 6835 fps=428 q=-0.0 size=N/A time=00:04:45.07 bitrate=N/A speed=17.8x    frame= 7075 fps=429 q=-0.0 size=N/A time=00:04:55.08 bitrate=N/A speed=17.9x    frame= 7354 fps=432 q=-0.0 size=N/A time=00:05:06.72 bitrate=N/A speed=  18x    frame= 7528 fps=429 q=-0.0 size=N/A time=00:05:13.98 bitrate=N/A speed=17.9x    frame= 7738 fps=429 q=-0.0 size=N/A time=00:05:22.73 bitrate=N/A speed=17.9x    frame= 8002 fps=431 q=-0.0 size=N/A time=00:05:33.75 bitrate=N/A speed=  18x    frame= 8239 fps=432 q=-0.0 size=N/A time=00:05:43.63 bitrate=N/A speed=  18x    frame= 8470 fps=432 q=-0.0 size=N/A time=00:05:53.26 bitrate=N/A speed=  18x    frame= 8702 fps=433 q=-0.0 size=N/A time=00:06:02.94 bitrate=N/A speed=  18x    frame= 8944 fps=434 q=-0.0 size=N/A time=00:06:13.03 bitrate=N/A speed=18.1x    frame= 9196 fps=435 q=-0.0 size=N/A time=00:06:23.54 bitrate=N/A speed=18.1x    frame= 9455 fps=436 q=-0.0 size=N/A time=00:06:34.35 bitrate=N/A speed=18.2x    frame= 9713 fps=438 q=-0.0 size=N/A time=00:06:45.11 bitrate=N/A speed=18.3x    frame= 9965 fps=439 q=-0.0 size=N/A time=00:06:55.62 bitrate=N/A speed=18.3x    frame=10237 fps=441 q=-0.0 size=N/A time=00:07:06.96 bitrate=N/A speed=18.4x    frame=10501 fps=443 q=-0.0 size=N/A time=00:07:17.97 bitrate=N/A speed=18.5x    frame=10682 fps=441 q=-0.0 size=N/A time=00:07:25.52 bitrate=N/A speed=18.4x    frame=10878 fps=439 q=-0.0 size=N/A time=00:07:33.70 bitrate=N/A speed=18.3x    frame=11135 fps=441 q=-0.0 size=N/A time=00:07:44.42 bitrate=N/A speed=18.4x    frame=11396 fps=442 q=-0.0 size=N/A time=00:07:55.30 bitrate=N/A speed=18.4x    frame=11663 fps=443 q=-0.0 size=N/A time=00:08:06.44 bitrate=N/A speed=18.5x    frame=11912 fps=444 q=-0.0 size=N/A time=00:08:16.82 bitrate=N/A speed=18.5x    frame=12044 fps=441 q=-0.0 size=N/A time=00:08:22.33 bitrate=N/A speed=18.4x    frame=12184 fps=437 q=-0.0 size=N/A time=00:08:28.17 bitrate=N/A speed=18.2x    frame=12432 fps=438 q=-0.0 size=N/A time=00:08:38.51 bitrate=N/A speed=18.3x    frame=12668 fps=439 q=-0.0 size=N/A time=00:08:48.36 bitrate=N/A speed=18.3x    frame=12912 fps=439 q=-0.0 size=N/A time=00:08:58.53 bitrate=N/A speed=18.3x    frame=13141 fps=439 q=-0.0 size=N/A time=00:09:08.08 bitrate=N/A speed=18.3x    frame=13396 fps=440 q=-0.0 size=N/A time=00:09:18.72 bitrate=N/A speed=18.4x    frame=13644 fps=441 q=-0.0 size=N/A time=00:09:29.06 bitrate=N/A speed=18.4x    frame=13897 fps=442 q=-0.0 size=N/A time=00:09:39.62 bitrate=N/A speed=18.4x    frame=14174 fps=443 q=-0.0 size=N/A time=00:09:51.17 bitrate=N/A speed=18.5x    frame=14436 fps=444 q=-0.0 size=N/A time=00:10:02.10 bitrate=N/A speed=18.5x    frame=14678 fps=445 q=-0.0 size=N/A time=00:10:12.19 bitrate=N/A speed=18.6x    frame=14932 fps=446 q=-0.0 size=N/A time=00:10:22.78 bitrate=N/A speed=18.6x    frame=15206 fps=447 q=-0.0 size=N/A time=00:10:34.21 bitrate=N/A speed=18.6x    frame=15442 fps=447 q=-0.0 size=N/A time=00:10:44.06 bitrate=N/A speed=18.6x    frame=15662 fps=447 q=-0.0 size=N/A time=00:10:53.23 bitrate=N/A speed=18.6x    frame=15923 fps=447 q=-0.0 size=N/A time=00:11:04.12 bitrate=N/A speed=18.7x    frame=16123 fps=447 q=-0.0 size=N/A time=00:11:12.46 bitrate=N/A speed=18.6x    frame=16365 fps=447 q=-0.0 size=N/A time=00:11:22.55 bitrate=N/A speed=18.6x    frame=16608 fps=447 q=-0.0 size=N/A time=00:11:32.69 bitrate=N/A speed=18.7x    frame=16833 fps=447 q=-0.0 size=N/A time=00:11:42.07 bitrate=N/A speed=18.7x    frame=17100 fps=448 q=-0.0 size=N/A time=00:11:53.21 bitrate=N/A speed=18.7x    frame=17347 fps=449 q=-0.0 size=N/A time=00:12:03.51 bitrate=N/A speed=18.7x    frame=17570 fps=448 q=-0.0 size=N/A time=00:12:12.81 bitrate=N/A speed=18.7x    frame=17821 fps=449 q=-0.0 size=N/A time=00:12:23.28 bitrate=N/A speed=18.7x    frame=18076 fps=449 q=-0.0 size=N/A time=00:12:33.91 bitrate=N/A speed=18.7x    frame=18332 fps=450 q=-0.0 size=N/A time=00:12:44.59 bitrate=N/A speed=18.8x    frame=18610 fps=451 q=-0.0 size=N/A time=00:12:56.19 bitrate=N/A speed=18.8x    frame=18845 fps=451 q=-0.0 size=N/A time=00:13:05.99 bitrate=N/A speed=18.8x    frame=19084 fps=451 q=-0.0 size=N/A time=00:13:15.96 bitrate=N/A speed=18.8x    frame=19316 fps=451 q=-0.0 size=N/A time=00:13:25.63 bitrate=N/A speed=18.8x    frame=19527 fps=451 q=-0.0 size=N/A time=00:13:34.43 bitrate=N/A speed=18.8x    frame=19796 fps=451 q=-0.0 size=N/A time=00:13:45.65 bitrate=N/A speed=18.8x    frame=20055 fps=452 q=-0.0 size=N/A time=00:13:56.46 bitrate=N/A speed=18.9x    frame=20299 fps=452 q=-0.0 size=N/A time=00:14:06.63 bitrate=N/A speed=18.9x    frame=20554 fps=453 q=-0.0 size=N/A time=00:14:17.27 bitrate=N/A speed=18.9x    frame=20804 fps=453 q=-0.0 size=N/A time=00:14:27.70 bitrate=N/A speed=18.9x    frame=21014 fps=453 q=-0.0 size=N/A time=00:14:36.45 bitrate=N/A speed=18.9x    frame=21253 fps=453 q=-0.0 size=N/A time=00:14:46.42 bitrate=N/A speed=18.9x    frame=21536 fps=454 q=-0.0 size=N/A time=00:14:58.23 bitrate=N/A speed=18.9x    frame=21744 fps=453 q=-0.0 size=N/A time=00:15:06.90 bitrate=N/A speed=18.9x    frame=22005 fps=454 q=-0.0 size=N/A time=00:15:17.79 bitrate=N/A speed=18.9x    frame=22286 fps=455 q=-0.0 size=N/A time=00:15:29.51 bitrate=N/A speed=  19x    frame=22503 fps=454 q=-0.0 size=N/A time=00:15:38.56 bitrate=N/A speed=  19x    frame=22676 fps=453 q=-0.0 size=N/A time=00:15:45.77 bitrate=N/A speed=18.9x    frame=22936 fps=454 q=-0.0 size=N/A time=00:15:56.62 bitrate=N/A speed=18.9x    frame=23187 fps=454 q=-0.0 size=N/A time=00:16:07.09 bitrate=N/A speed=18.9x    frame=23420 fps=454 q=-0.0 size=N/A time=00:16:16.80 bitrate=N/A speed=18.9x    frame=23578 fps=453 q=-0.0 size=N/A time=00:16:23.39 bitrate=N/A speed=18.9x    frame=23719 fps=451 q=-0.0 size=N/A time=00:16:29.27 bitrate=N/A speed=18.8x    frame=23947 fps=451 q=-0.0 size=N/A time=00:16:38.78 bitrate=N/A speed=18.8x    frame=24213 fps=451 q=-0.0 size=N/A time=00:16:49.88 bitrate=N/A speed=18.8x    frame=24479 fps=452 q=-0.0 size=N/A time=00:17:00.97 bitrate=N/A speed=18.9x    frame=24750 fps=453 q=-0.0 size=N/A time=00:17:12.28 bitrate=N/A speed=18.9x    frame=24917 fps=451 q=-0.0 size=N/A time=00:17:19.24 bitrate=N/A speed=18.8x    frame=25063 fps=450 q=-0.0 size=N/A time=00:17:25.33 bitrate=N/A speed=18.8x    frame=25231 fps=449 q=-0.0 size=N/A time=00:17:32.34 bitrate=N/A speed=18.7x    frame=25482 fps=449 q=-0.0 size=N/A time=00:17:42.81 bitrate=N/A speed=18.7x    frame=25685 fps=449 q=-0.0 size=N/A time=00:17:51.27 bitrate=N/A speed=18.7x    frame=25857 fps=448 q=-0.0 size=N/A time=00:17:58.45 bitrate=N/A speed=18.7x    frame=26095 fps=448 q=-0.0 size=N/A time=00:18:08.37 bitrate=N/A speed=18.7x    frame=26285 fps=447 q=-0.0 size=N/A time=00:18:16.30 bitrate=N/A speed=18.6x    frame=26542 fps=447 q=-0.0 size=N/A time=00:18:27.02 bitrate=N/A speed=18.7x    frame=26791 fps=448 q=-0.0 size=N/A time=00:18:37.40 bitrate=N/A speed=18.7x    frame=27052 fps=448 q=-0.0 size=N/A time=00:18:48.29 bitrate=N/A speed=18.7x    frame=27224 fps=447 q=-0.0 size=N/A time=00:18:55.46 bitrate=N/A speed=18.6x    frame=27463 fps=447 q=-0.0 size=N/A time=00:19:05.43 bitrate=N/A speed=18.7x    frame=27743 fps=448 q=-0.0 size=N/A time=00:19:17.11 bitrate=N/A speed=18.7x    frame=28010 fps=449 q=-0.0 size=N/A time=00:19:28.25 bitrate=N/A speed=18.7x    frame=28239 fps=449 q=-0.0 size=N/A time=00:19:37.80 bitrate=N/A speed=18.7x    frame=28459 fps=448 q=-0.0 size=N/A time=00:19:46.97 bitrate=N/A speed=18.7x    frame=28691 fps=448 q=-0.0 size=N/A time=00:19:56.65 bitrate=N/A speed=18.7x    frame=28931 fps=449 q=-0.0 size=N/A time=00:20:06.66 bitrate=N/A speed=18.7x    frame=29068 fps=447 q=-0.0 size=N/A time=00:20:12.37 bitrate=N/A speed=18.7x    frame=29240 fps=446 q=-0.0 size=N/A time=00:20:19.55 bitrate=N/A speed=18.6x    frame=29483 fps=446 q=-0.0 size=N/A time=00:20:29.68 bitrate=N/A speed=18.6x    frame=29718 fps=446 q=-0.0 size=N/A time=00:20:39.48 bitrate=N/A speed=18.6x    frame=29861 fps=445 q=-0.0 size=N/A time=00:20:45.45 bitrate=N/A speed=18.6x    frame=30002 fps=444 q=-0.0 size=N/A time=00:20:51.33 bitrate=N/A speed=18.5x    frame=30183 fps=443 q=-0.0 size=N/A time=00:20:58.88 bitrate=N/A speed=18.5x    frame=30429 fps=443 q=-0.0 size=N/A time=00:21:09.14 bitrate=N/A speed=18.5x    frame=30670 fps=444 q=-0.0 size=N/A time=00:21:19.19 bitrate=N/A speed=18.5x    frame=30904 fps=444 q=-0.0 size=N/A time=00:21:28.95 bitrate=N/A speed=18.5x    frame=31158 fps=444 q=-0.0 size=N/A time=00:21:39.54 bitrate=N/A speed=18.5x    frame=31407 fps=444 q=-0.0 size=N/A time=00:21:49.93 bitrate=N/A speed=18.5x    frame=31640 fps=444 q=-0.0 size=N/A time=00:21:59.65 bitrate=N/A speed=18.5x    frame=31826 fps=444 q=-0.0 size=N/A time=00:22:07.40 bitrate=N/A speed=18.5x    frame=31950 fps=442 q=-0.0 size=N/A time=00:22:12.58 bitrate=N/A speed=18.4x    frame=32191 fps=442 q=-0.0 size=N/A time=00:22:22.63 bitrate=N/A speed=18.5x    frame=32464 fps=443 q=-0.0 size=N/A time=00:22:34.01 bitrate=N/A speed=18.5x    frame=32660 fps=443 q=-0.0 size=N/A time=00:22:42.19 bitrate=N/A speed=18.5x    frame=32846 fps=442 q=-0.0 size=N/A time=00:22:49.95 bitrate=N/A speed=18.4x    frame=33042 fps=442 q=-0.0 size=N/A time=00:22:58.12 bitrate=N/A speed=18.4x    frame=33281 fps=442 q=-0.0 size=N/A time=00:23:08.09 bitrate=N/A speed=18.4x    frame=33484 fps=442 q=-0.0 size=N/A time=00:23:16.56 bitrate=N/A speed=18.4x    frame=33704 fps=441 q=-0.0 size=N/A time=00:23:25.73 bitrate=N/A speed=18.4x    frame=33896 fps=441 q=-0.0 size=N/A time=00:23:33.74 bitrate=N/A speed=18.4x    frame=34065 fps=440 q=-0.0 size=N/A time=00:23:40.79 bitrate=N/A speed=18.4x    frame=34181 fps=439 q=-0.0 size=N/A time=00:23:45.63 bitrate=N/A speed=18.3x    frame=34288 fps=437 q=-0.0 size=N/A time=00:23:50.09 bitrate=N/A speed=18.2x    frame=34408 fps=436 q=-0.0 size=N/A time=00:23:55.10 bitrate=N/A speed=18.2x    frame=34546 fps=435 q=-0.0 size=N/A time=00:24:00.85 bitrate=N/A speed=18.1x    frame=34748 fps=434 q=-0.0 size=N/A time=00:24:09.28 bitrate=N/A speed=18.1x    [Parsed_psnr_10 @ 00000173c064c640] PSNR y:47.192980 u:49.868985 v:49.095422 average:47.826755 min:34.540931 max:inf
[out#0/null @ 00000173aa3afc80] video:14961KiB audio:272304KiB subtitle:0KiB other streams:0KiB global headers:0KiB muxing overhead: unknown
frame=34819 fps=434 q=-0.0 Lsize=N/A time=00:24:12.24 bitrate=N/A speed=18.1x    
